<?xml version="1.0" encoding="utf-8"?>
<!-- Generator: Adobe Illustrator 19.2.1, SVG Export Plug-In . SVG Version: 6.00 Build 0)  -->
<svg version="1.1" id="layer" xmlns="http://www.w3.org/2000/svg" xmlns:xlink="http://www.w3.org/1999/xlink" x="0px" y="0px"
	 viewBox="0 0 652 652" style="enable-background:new 0 0 652 652;" xml:space="preserve">
<style type="text/css">
	.st0{fill:#045EAA;}
	.st1{fill:#E30513;}
</style>
<polygon points="54.2,357.8 54.2,403.4 48.7,403.4 48.7,381.8 25.7,381.8 25.7,403.4 20.1,403.4 20.1,357.8 25.7,357.8 25.7,378.4 
	48.7,378.4 48.7,357.8 "/>
<g>
	<path d="M86.4,390.9v-2.5l-0.3,0.1c-8.2,0.8-14.9,1.9-14.9,7.4c0,2.8,1.8,4.5,5.5,4.5C82.7,400.3,86.4,396,86.4,390.9 M91.5,382.2
		v21.2h-5v-4.8c-2.1,3.2-5.8,5.5-11.2,5.5c-6.3,0-9.3-3.2-9.3-7.8c0-8.1,9.1-9.9,19.9-10.8h0.4v-3.1c0-4.1-2-6.2-7-6.2
		c-6.8,0-12,3.9-12,3.9l0.6-4.5c0,0,4.5-3.6,12.2-3.6C89.3,371.8,91.5,377,91.5,382.2"/>
	<path d="M147.8,381.6v21.8h-5.2v-21.1c0-3.8-1.3-6.3-5.2-6.3c-4.9,0-8.9,3.9-8.9,10.1v17.3h-5.1v-21.1c0-3.8-1.4-6.3-5.2-6.3
		c-4.9,0-8.8,3.9-8.8,10.1v17.3h-5.2v-31h4.8v5.3c2.2-3.6,5.8-6,10.5-6c4.8,0,7.6,2.3,8.5,6.2c2.1-3.8,5.9-6.2,10.6-6.2
		C145.1,371.8,147.8,375.5,147.8,381.6"/>
	<path d="M182.9,388c0-8.2-2.7-12.1-8.2-12.1c-4.8,0-8.9,4-8.9,12.1c0,8.1,3.9,11.9,8.7,11.9C180,399.9,182.9,396.4,182.9,388
		 M188.3,387.9c0,11-6.1,16.1-12.9,16.1c-4.6,0-7.8-2.1-9.8-5.4v4.8h-5v-45.6h5.2v19.7c2.1-3.4,5.5-5.7,10.3-5.7
		C183.3,371.8,188.3,377.1,188.3,387.9"/>
	<path d="M225.5,372.3v31h-4.8V398c-2.3,3.7-6.2,6.1-11.3,6.1c-6.5,0-9.4-3.7-9.4-9.8v-21.9h5.2v21.3c0,3.8,1.5,6.3,5.7,6.3
		c5.2,0,9.6-4,9.6-10.3v-17.3H225.5z"/>
	<path d="M256.6,377.6c0,0-1.2-0.4-3.3-0.4c-5.3,0-9.6,4.6-9.6,12.3v13.9h-5.2v-31h5v7.6c2.2-5,6.2-8.2,10.6-8.2
		c1,0,1.9,0.2,1.9,0.2L256.6,377.6z"/>
	<path d="M286.6,387.2c0-7.8-3.9-11.4-8.7-11.4c-5.5,0-8.2,3.4-8.2,11.4c0,7.8,2.6,11.5,8,11.5C282.5,398.7,286.6,395,286.6,387.2
		 M291.7,372.4v32c0,5.9-3.3,11.7-14.3,11.7c-7.3,0-11.2-3.8-11.2-3.8l-0.6-4.7c0,0,4.5,4.1,12,4.1c5.7,0,8.9-2.6,8.9-7.3v-7.3
		c-2.1,3.3-5.5,5.5-10.3,5.5c-7.3,0-12.1-5-12.1-15.5c0-10.6,5.9-15.5,12.7-15.5c4.7,0,7.8,2,9.8,5.2v-4.5H291.7z"/>
	<path class="st0" d="M241.2,314.5l0.5-0.1v5.1c-43.1,12-74.2,8.7-117.2,0.1c-37.1-7.4-65.4-12.8-102.6-0.1v-5.2
		c37.3-12.4,66.4-7,103.5,0.4C167.5,323.1,198.4,326.6,241.2,314.5"/>
	<path class="st1" d="M178.7,315.9l-0.2-16.2c0-4.9-3.9-8.8-8.8-8.8c-4.9,0-8.8,3.9-8.8,8.8l-0.2,14.7c-9.5-1.1-18.7-2.7-27.7-4.4
		c3.9-10.7,5.8-19.3,6.7-31.5h60.1c0.8,12.7,3.7,24.7,8,36.6C197.7,316.2,188,316.4,178.7,315.9"/>
</g>
<polygon class="st1" points="151.9,242.8 148.7,242.8 147.1,245.6 145.5,242.8 142.3,242.8 143.9,240 142.3,237.3 145.5,237.3 
	147.1,234.5 148.7,237.3 151.9,237.3 150.3,240 "/>
<polygon class="st1" points="197.1,242.8 193.9,242.8 192.3,245.6 190.7,242.8 187.5,242.8 189.1,240 187.5,237.3 190.7,237.3 
	192.3,234.5 193.9,237.3 197.1,237.3 195.5,240 "/>
<g>
	<path class="st1" d="M161.5,244v-0.3c0-3.9,2.7-7.1,6.3-7.9v-3.5h-3v-3.3h3v-3.4h3.8v3.4h3v3.3h-3v3.5c3.8,0.9,6.1,4.3,6.3,8.2h3.2
		v4.2h-3.6v22.6h7.7v-22.6h14.2v22.6h4.5v4.3h-68.4v-4.3h4.5v-22.6h14.2v22.6h7.7v-22.6h-3.6V244H161.5z"/>
	<path d="M354.8,366c0.5,0.1,1.2,0.1,2.1,0.1c2.6,0,5-1,5-3.8c0-2.7-2.3-3.8-5.1-3.8h-2.1V366z M354.8,356.6h2.3
		c2.7,0,4.3-1.4,4.3-3.3c0-2.3-1.8-3.2-4.3-3.2c-1.2,0-1.8,0.1-2.2,0.2V356.6z M352.3,348.5c1.1-0.2,2.9-0.4,4.6-0.4
		c2.5,0,4.2,0.4,5.4,1.4c1,0.8,1.6,1.9,1.6,3.5c0,1.9-1.3,3.6-3.3,4.3v0.1c1.9,0.5,4.1,2,4.1,4.9c0,1.7-0.7,3-1.7,3.9
		c-1.4,1.3-3.6,1.8-6.8,1.8c-1.8,0-3.1-0.1-3.9-0.2V348.5z"/>
	<path d="M379.9,359.5c0-1.6-0.7-4.2-3.6-4.2c-2.6,0-3.7,2.4-3.9,4.2H379.9z M372.4,361.3c0.1,3.5,2.3,4.9,4.8,4.9
		c1.8,0,2.9-0.3,3.9-0.7l0.4,1.8c-0.9,0.4-2.5,0.9-4.7,0.9c-4.3,0-6.9-2.9-6.9-7.1c0-4.3,2.5-7.6,6.6-7.6c4.6,0,5.8,4.1,5.8,6.7
		c0,0.5-0.1,0.9-0.1,1.2H372.4z"/>
	<path d="M388.3,347.2h2.6v8.8h0.1c0.4-0.7,1.1-1.4,1.8-1.8c0.8-0.4,1.7-0.7,2.6-0.7c1.9,0,4.9,1.2,4.9,6v8.4h-2.6v-8.1
		c0-2.3-0.8-4.2-3.3-4.2c-1.7,0-3,1.2-3.4,2.6c-0.1,0.4-0.2,0.7-0.2,1.2v8.5h-2.6V347.2z"/>
	<path d="M414.5,349.8c0-0.8,0.6-1.5,1.5-1.5s1.4,0.6,1.4,1.5c0,0.8-0.6,1.5-1.4,1.5C415,351.3,414.5,350.6,414.5,349.8 M409,349.8
		c0-0.8,0.7-1.5,1.5-1.5c0.8,0,1.4,0.6,1.4,1.5c0,0.8-0.6,1.5-1.4,1.5C409.6,351.3,409,350.6,409,349.8 M408.9,360.9
		c0,3.1,1.8,5.4,4.3,5.4c2.5,0,4.3-2.3,4.3-5.5c0-2.4-1.2-5.4-4.2-5.4C410.2,355.4,408.9,358.2,408.9,360.9 M420.1,360.7
		c0,5.2-3.6,7.5-7,7.5c-3.8,0-6.8-2.8-6.8-7.3c0-4.7,3.1-7.5,7-7.5C417.4,353.5,420.1,356.4,420.1,360.7"/>
	<path d="M426.2,358.2c0-1.7,0-3.1-0.1-4.4h2.2l0.1,2.8h0.1c0.6-1.9,2.2-3.1,3.9-3.1c0.3,0,0.5,0,0.7,0.1v2.4
		c-0.3-0.1-0.5-0.1-0.9-0.1c-1.8,0-3.1,1.4-3.4,3.3c-0.1,0.3-0.1,0.8-0.1,1.2v7.5h-2.5V358.2z"/>
	<path d="M447.8,359.5c0-0.3,0-0.8-0.1-1.1c-0.4-1.6-1.8-3-3.7-3c-2.7,0-4.2,2.3-4.2,5.5c0,2.9,1.4,5.2,4.2,5.2
		c1.7,0,3.3-1.1,3.8-3.1c0.1-0.3,0.1-0.7,0.1-1.1V359.5z M450.4,347.2v17.1c0,1.3,0,2.7,0.1,3.6h-2.3l-0.1-2.5H448
		c-0.8,1.6-2.5,2.8-4.8,2.8c-3.4,0-6-2.9-6-7.2c0-4.7,2.9-7.6,6.3-7.6c2.2,0,3.6,1,4.3,2.2h0.1v-8.4H450.4z"/>
	<path d="M466.4,359.5c0-1.6-0.7-4.2-3.6-4.2c-2.6,0-3.7,2.4-3.9,4.2H466.4z M458.9,361.3c0.1,3.5,2.3,4.9,4.8,4.9
		c1.8,0,2.9-0.3,3.9-0.7l0.4,1.8c-0.9,0.4-2.5,0.9-4.7,0.9c-4.4,0-6.9-2.9-6.9-7.1c0-4.3,2.5-7.6,6.6-7.6c4.6,0,5.8,4.1,5.8,6.7
		c0,0.5-0.1,0.9-0.1,1.2H458.9z"/>
	<path d="M484.1,367.9v-12.2h-2v-2h2v-0.7c0-2,0.4-3.8,1.6-4.9c1-0.9,2.2-1.3,3.4-1.3c0.9,0,1.7,0.2,2.2,0.4l-0.4,2
		c-0.4-0.2-0.9-0.3-1.6-0.3c-2.2,0-2.7,1.9-2.7,4.1v0.8h3.4v2h-3.4v12.2H484.1z"/>
	<path d="M502.4,349.8c0-0.8,0.6-1.5,1.5-1.5c0.8,0,1.4,0.6,1.4,1.5c0,0.8-0.6,1.5-1.4,1.5C503,351.3,502.4,350.6,502.4,349.8
		 M497,349.8c0-0.8,0.7-1.5,1.5-1.5c0.8,0,1.4,0.6,1.4,1.5c0,0.8-0.6,1.5-1.4,1.5C497.6,351.3,497,350.6,497,349.8 M507,364.1
		c0,1.5,0,2.7,0.1,3.9h-2.3l-0.1-2.3h-0.1c-0.7,1.1-2.2,2.6-4.7,2.6c-2.2,0-4.9-1.2-4.9-6.2v-8.3h2.6v7.8c0,2.7,0.8,4.5,3.2,4.5
		c1.7,0,2.9-1.2,3.4-2.3c0.1-0.4,0.2-0.8,0.2-1.3v-8.7h2.6V364.1z"/>
	<path d="M514,358.2c0-1.7,0-3.1-0.1-4.4h2.2l0.1,2.8h0.1c0.6-1.9,2.2-3.1,3.9-3.1c0.3,0,0.5,0,0.7,0.1v2.4
		c-0.3-0.1-0.5-0.1-0.9-0.1c-1.8,0-3.1,1.4-3.4,3.3c-0.1,0.3-0.1,0.8-0.1,1.2v7.5H514V358.2z"/>
	<path d="M352.3,383.3h2.5v9.5h0.1c0.5-0.8,1.1-1.5,1.5-2.1l6-7.4h3.2l-7.1,8.3l7.7,11.3h-3l-6.5-9.7l-1.9,2.2v7.5h-2.5V383.3z"/>
	<path d="M382.5,399.1c0,1.5,0,2.7,0.1,3.9h-2.3l-0.1-2.3h-0.1c-0.7,1.1-2.2,2.6-4.7,2.6c-2.2,0-4.9-1.2-4.9-6.2v-8.3h2.6v7.8
		c0,2.7,0.8,4.5,3.2,4.5c1.7,0,2.9-1.2,3.4-2.3c0.1-0.4,0.2-0.8,0.2-1.3v-8.7h2.6V399.1z"/>
</g>
<rect x="389.5" y="382.2" width="2.6" height="20.7"/>
<g>
	<path d="M402.3,384.7v4.1h3.7v2h-3.7v7.6c0,1.8,0.5,2.7,1.9,2.7c0.7,0,1.2-0.1,1.5-0.2l0.1,1.9c-0.5,0.2-1.3,0.4-2.3,0.4
		c-1.2,0-2.2-0.4-2.8-1.1c-0.7-0.8-1-2-1-3.7v-7.7h-2.2v-2h2.2v-3.4L402.3,384.7z"/>
	<path d="M423.5,399.1c0,1.5,0,2.7,0.1,3.9h-2.3l-0.1-2.3h-0.1c-0.7,1.1-2.2,2.6-4.7,2.6c-2.2,0-4.9-1.2-4.9-6.2v-8.3h2.6v7.8
		c0,2.7,0.8,4.5,3.2,4.5c1.7,0,2.9-1.2,3.4-2.3c0.1-0.4,0.2-0.8,0.2-1.3v-8.7h2.6V399.1z"/>
	<path d="M430.5,393.2c0-1.7,0-3.1-0.1-4.4h2.2l0.1,2.8h0.1c0.6-1.9,2.2-3.1,3.9-3.1c0.3,0,0.5,0,0.7,0.1v2.4
		c-0.3-0.1-0.5-0.1-0.9-0.1c-1.8,0-3.1,1.4-3.4,3.3c-0.1,0.3-0.1,0.8-0.1,1.2v7.5h-2.5V393.2z"/>
	<path d="M463.7,399.1c0,1.5,0,2.7,0.1,3.9h-2.3l-0.1-2.3h-0.1c-0.7,1.1-2.2,2.6-4.7,2.6c-2.2,0-4.9-1.2-4.9-6.2v-8.3h2.6v7.8
		c0,2.7,0.8,4.5,3.2,4.5c1.7,0,2.9-1.2,3.4-2.3c0.1-0.4,0.2-0.8,0.2-1.3v-8.7h2.6V399.1z"/>
	<path d="M470.7,392.6c0-1.5,0-2.7-0.1-3.8h2.3l0.1,2.3h0.1c0.7-1.3,2.3-2.7,4.7-2.7c2,0,5,1.2,5,6v8.4h-2.6v-8.1
		c0-2.3-0.8-4.2-3.3-4.2c-1.7,0-3,1.2-3.4,2.6c-0.1,0.3-0.2,0.8-0.2,1.2v8.5h-2.6V392.6z"/>
	<path d="M499.3,394.5c0-0.3,0-0.8-0.1-1.1c-0.4-1.6-1.8-3-3.7-3c-2.7,0-4.2,2.3-4.2,5.5c0,2.9,1.4,5.2,4.2,5.2
		c1.7,0,3.3-1.1,3.8-3.1c0.1-0.4,0.1-0.7,0.1-1.1V394.5z M501.9,382.2v17.1c0,1.3,0,2.7,0.1,3.6h-2.3l-0.1-2.5h-0.1
		c-0.8,1.6-2.5,2.8-4.8,2.8c-3.4,0-6-2.9-6-7.2c0-4.7,2.9-7.6,6.3-7.6c2.2,0,3.6,1,4.3,2.2h0.1v-8.4H501.9z"/>
	<path d="M534.6,394.3c-0.1-2.7-0.3-6-0.3-8.5h-0.1c-0.7,2.3-1.5,4.8-2.5,7.5l-3.5,9.5h-1.9l-3.2-9.4c-0.9-2.8-1.7-5.3-2.3-7.6h-0.1
		c-0.1,2.5-0.2,5.8-0.4,8.7l-0.5,8.4h-2.4l1.4-19.7h3.2l3.4,9.5c0.8,2.4,1.5,4.6,2,6.6h0.1c0.5-2,1.2-4.1,2.1-6.6l3.5-9.5h3.2
		l1.2,19.7h-2.5L534.6,394.3z"/>
	<path d="M553.3,394.5c0-1.6-0.7-4.2-3.6-4.2c-2.6,0-3.7,2.4-3.9,4.2H553.3z M545.8,396.3c0.1,3.5,2.3,4.9,4.8,4.9
		c1.8,0,2.9-0.3,3.9-0.7l0.4,1.8c-0.9,0.4-2.5,0.9-4.7,0.9c-4.4,0-6.9-2.9-6.9-7.1c0-4.3,2.5-7.6,6.6-7.6c4.6,0,5.8,4.1,5.8,6.7
		c0,0.5-0.1,0.9-0.1,1.2H545.8z"/>
	<path d="M571.4,394.5c0-0.3,0-0.8-0.1-1.1c-0.4-1.6-1.8-3-3.7-3c-2.7,0-4.2,2.3-4.2,5.5c0,2.9,1.4,5.2,4.2,5.2
		c1.7,0,3.3-1.1,3.8-3.1c0.1-0.4,0.1-0.7,0.1-1.1V394.5z M574,382.2v17.1c0,1.3,0,2.7,0.1,3.6h-2.3l-0.1-2.5h-0.1
		c-0.8,1.6-2.5,2.8-4.8,2.8c-3.4,0-6-2.9-6-7.2c0-4.7,2.9-7.6,6.3-7.6c2.2,0,3.6,1,4.3,2.2h0.1v-8.4H574z"/>
	<path d="M581.1,402.9v-14.1h2.6v14.1H581.1z M583.9,384.8c0,0.9-0.6,1.6-1.6,1.6c-0.9,0-1.5-0.7-1.5-1.6c0-0.9,0.7-1.6,1.6-1.6
		C583.3,383.2,583.9,383.9,583.9,384.8"/>
	<path d="M599.6,394.5c0-1.6-0.7-4.2-3.6-4.2c-2.6,0-3.7,2.4-3.9,4.2H599.6z M592.1,396.3c0.1,3.5,2.3,4.9,4.8,4.9
		c1.8,0,2.9-0.3,3.9-0.7l0.4,1.8c-0.9,0.4-2.5,0.9-4.7,0.9c-4.4,0-6.9-2.9-6.9-7.1c0-4.3,2.5-7.6,6.6-7.6c4.6,0,5.8,4.1,5.8,6.7
		c0,0.5-0.1,0.9-0.1,1.2H592.1z"/>
	<path d="M608.1,392.6c0-1.5,0-2.7-0.1-3.8h2.3l0.1,2.3h0.1c0.7-1.3,2.3-2.7,4.7-2.7c2,0,5,1.2,5,6v8.4h-2.6v-8.1
		c0-2.3-0.8-4.2-3.3-4.2c-1.7,0-3,1.2-3.4,2.6c-0.1,0.3-0.2,0.8-0.2,1.2v8.5h-2.6V392.6z"/>
</g>
<rect x="321.1" y="347.2" width="1.7" height="56.1"/>
</svg>
